<svg xmlns="http://www.w3.org/2000/svg" xmlns:xlink="http://www.w3.org/1999/xlink" width="1246.203" height="1246.203" viewBox="0 0 1246.203 1246.203">
  <defs>
    <linearGradient id="linear-gradient" y1="0.5" x2="1" y2="0.5" gradientUnits="objectBoundingBox">
      <stop offset="0" stop-color="#ff899d"/>
      <stop offset="1" stop-color="#f7329c"/>
    </linearGradient>
  </defs>
  <path id="Path_1197" data-name="Path 1197" d="M1820.328,1148.284c58.1-15.886,131.807-188.111,178.708-232.343,35.039-33.042-208.117-151.509-47.367-287.478,120.186-101.659,97.315,63.268,201.453-8.686,156.463-108.107,25.412-149.72-39.091-170.363-211.893-67.814-151.322-318.07-275.482-313.3-124.856,4.8,34.8,179.554-308.4,339.71-147.6,115.037,90.035,133.386,201.019,190.546,179.295,92.339-81.023,59.188-21.162,148.157C1791.5,935.647,1634.608,1199.064,1820.328,1148.284Z" transform="translate(-232.279 -1144.979) rotate(45)" opacity="0.23" fill="url(#linear-gradient)"/>
</svg>
