<svg xmlns="http://www.w3.org/2000/svg" width="1602.428" height="627.331" viewBox="0 0 1602.428 627.331">
  <g id="Group_5810" data-name="Group 5810" opacity="0.44" style="mix-blend-mode: lighten;isolation: isolate">
    <path id="Path_2896" data-name="Path 2896" d="M0,517.143c9.71-11.455,90.914-215.881,475.244-218.137s461.6,165.554,654.386,108.809-47.836-167.031,0-268.985S1320.967,0,1320.967,0V517.143Z" transform="translate(281.461 110.188)" fill="#fff" opacity="0.25"/>
    <path id="Path_2897" data-name="Path 2897" d="M0,470.29c8.832-10.417,34.9-173.813,384.408-175.866s467.561,143.119,642.875,91.514-6.312-187.966,37.191-280.682S1201.286,0,1201.286,0V470.29Z" transform="translate(401.141 157.041)" fill="#fff" opacity="0.25"/>
    <path id="Path_2898" data-name="Path 2898" d="M0,627.331c11.78-13.895,220.815-306.745,687.028-309.482s465.7,239.441,699.561,170.6-121.734-142.387-63.707-266.064S1602.427,0,1602.427,0V627.331Z" fill="#fff" opacity="0.25"/>
  </g>
</svg>
