<svg xmlns="http://www.w3.org/2000/svg" xmlns:xlink="http://www.w3.org/1999/xlink" width="177" height="83.5" viewBox="0 0 177 83.5">
  <defs>
    <filter id="Rectangle_619" x="0" y="0" width="177" height="83.5" filterUnits="userSpaceOnUse">
      <feOffset dy="3" input="SourceAlpha"/>
      <feGaussianBlur stdDeviation="6" result="blur"/>
      <feFlood flood-color="#7b5bfd" flood-opacity="0.22"/>
      <feComposite operator="in" in2="blur"/>
      <feComposite in="SourceGraphic"/>
    </filter>
    <linearGradient id="linear-gradient" x1="0.904" y1="0.255" x2="-0.033" y2="0.602" gradientUnits="objectBoundingBox">
      <stop offset="0" stop-color="#4bc9fe"/>
      <stop offset="1" stop-color="#5052fe"/>
    </linearGradient>
  </defs>
  <g id="Group_7208" data-name="Group 7208" transform="translate(-646 -4528)">
    <g id="Group_3446" data-name="Group 3446" transform="translate(-164 4099)">
      <g transform="matrix(1, 0, 0, 1, 810, 429)" filter="url(#Rectangle_619)">
        <rect id="Rectangle_619-2" data-name="Rectangle 619" width="141" height="47.5" rx="23.75" transform="translate(18 15)" fill="#fff"/>
      </g>
      <text id="Blogs" transform="translate(847 475)" fill="#d2c6eb" font-size="18" font-family="Nunito-ExtraBold, Nunito" font-weight="800"><tspan x="0" y="0">Blogs</tspan></text>
      <g id="Group_3439" data-name="Group 3439" transform="translate(-30)">
        <path id="Path_2967" data-name="Path 2967" d="M24,0A24,24,0,1,1,0,24,24,24,0,0,1,24,0Z" transform="translate(951 444)" fill="url(#linear-gradient)"/>
        <g id="Group_3493" data-name="Group 3493" transform="translate(927.591 -59.636)">
          <path id="Path_2968" data-name="Path 2968" d="M48.321,524.8v14.668L57.185,524.5l-5.242-9.255H43.053L37.8,524.5l8.916,14.916V524.775a2.608,2.608,0,0,1-1.595-2.471,2.44,2.44,0,1,1,4.863,0A2.609,2.609,0,0,1,48.321,524.8Z" transform="translate(0 1.036)" fill="#fff" fill-rule="evenodd"/>
          <path id="Path_2969" data-name="Path 2969" d="M42.671,511.874h7.357a1.155,1.155,0,0,1,1.156,1.156v.794a1.154,1.154,0,0,1-1.156,1.156H42.671a1.154,1.154,0,0,1-1.156-1.156v-.794A1.155,1.155,0,0,1,42.671,511.874Z" transform="translate(1.142 0)" fill="#fff" fill-rule="evenodd"/>
          <path id="Path_2970" data-name="Path 2970" d="M45.1,538.166s6.071,1.139,7.678-4.406c0,0,.3-3.235,5.253-3.524,0,0-4.23-.854-6.466,3.965-1.489,2.533-2.2,2.685-6.464,2.2,0,0-.822.192-.809.881A.9.9,0,0,0,45.1,538.166Z" transform="translate(1.994 5.624)" fill="#fff" fill-rule="evenodd"/>
        </g>
      </g>
    </g>
  </g>
</svg>
