<svg xmlns="http://www.w3.org/2000/svg" width="27.92" height="30.72" viewBox="0 0 27.92 30.72">
  <g id="Group_3443" data-name="Group 3443" transform="translate(-137.33 -747.88)">
    <path id="Path_2955" data-name="Path 2955" d="M144,758.92a1.992,1.992,0,0,1-.57-1.39v-4.12h3.93v4.12a1.966,1.966,0,0,1-3.36,1.39Z" fill="#d2c6eb"/>
    <path id="Path_2956" data-name="Path 2956" d="M155.63,758.92a1.958,1.958,0,0,1-.58-1.39v-4.12h3.94v4.12a1.98,1.98,0,0,1-1.97,1.97A1.958,1.958,0,0,1,155.63,758.92Z" fill="#d2c6eb"/>
    <path id="Path_2957" data-name="Path 2957" d="M161.16,753.41h-1.17v4.12a2.97,2.97,0,0,1-5.94,0v-4.12h-5.69v4.12a2.965,2.965,0,1,1-5.93,0v-4.12h-1.01a4.1,4.1,0,0,0-4.09,4.09v17.01a4.1,4.1,0,0,0,4.09,4.09h19.74a4.1,4.1,0,0,0,4.09-4.09V757.5A4.1,4.1,0,0,0,161.16,753.41Zm1.41,21.95H139.69V762.19h22.88Z" fill="#d2c6eb"/>
    <g id="Group_3441" data-name="Group 3441">
      <path id="Path_2958" data-name="Path 2958" d="M147.36,749.84v7.69a1.965,1.965,0,1,1-3.93,0v-7.69a1.965,1.965,0,0,1,3.93,0Z" fill="#d2c6eb"/>
    </g>
    <g id="Group_3442" data-name="Group 3442">
      <path id="Path_2959" data-name="Path 2959" d="M158.99,749.84v7.69a1.98,1.98,0,0,1-1.97,1.97,1.98,1.98,0,0,1-1.97-1.97v-7.69a1.97,1.97,0,0,1,3.94,0Z" fill="#d2c6eb"/>
    </g>
    <rect id="Rectangle_775" data-name="Rectangle 775" width="3.073" height="3.073" transform="translate(145.522 763.271)" fill="#d2c6eb"/>
    <rect id="Rectangle_776" data-name="Rectangle 776" width="3.073" height="3.073" transform="translate(149.514 763.271)" fill="#d2c6eb"/>
    <rect id="Rectangle_777" data-name="Rectangle 777" width="3.073" height="3.073" transform="translate(153.543 763.271)" fill="#d2c6eb"/>
    <rect id="Rectangle_778" data-name="Rectangle 778" width="3.073" height="3.073" transform="translate(157.535 763.271)" fill="#d2c6eb"/>
    <rect id="Rectangle_779" data-name="Rectangle 779" width="3.073" height="3.073" transform="translate(145.522 767.24)" fill="#d2c6eb"/>
    <rect id="Rectangle_780" data-name="Rectangle 780" width="3.073" height="3.073" transform="translate(141.653 767.24)" fill="#d2c6eb"/>
    <rect id="Rectangle_781" data-name="Rectangle 781" width="3.073" height="3.073" transform="translate(149.514 767.24)" fill="#d2c6eb"/>
    <rect id="Rectangle_782" data-name="Rectangle 782" width="3.073" height="3.073" transform="translate(145.522 771.209)" fill="#d2c6eb"/>
    <rect id="Rectangle_783" data-name="Rectangle 783" width="3.073" height="3.073" transform="translate(141.653 771.209)" fill="#d2c6eb"/>
    <rect id="Rectangle_784" data-name="Rectangle 784" width="3.073" height="3.073" transform="translate(149.514 771.209)" fill="#d2c6eb"/>
    <rect id="Rectangle_785" data-name="Rectangle 785" width="3.073" height="3.073" transform="translate(153.543 767.24)" fill="#d2c6eb"/>
    <rect id="Rectangle_786" data-name="Rectangle 786" width="3.073" height="3.073" transform="translate(157.535 767.24)" fill="#d2c6eb"/>
  </g>
</svg>
