<svg xmlns="http://www.w3.org/2000/svg" xmlns:xlink="http://www.w3.org/1999/xlink" width="177" height="83.5" viewBox="0 0 177 83.5">
  <defs>
    <filter id="Rectangle_619" x="0" y="0" width="177" height="83.5" filterUnits="userSpaceOnUse">
      <feOffset dy="3" input="SourceAlpha"/>
      <feGaussianBlur stdDeviation="6" result="blur"/>
      <feFlood flood-color="#7b5bfd" flood-opacity="0.22"/>
      <feComposite operator="in" in2="blur"/>
      <feComposite in="SourceGraphic"/>
    </filter>
    <linearGradient id="linear-gradient" y1="0.75" x2="0.93" y2="0.167" gradientUnits="objectBoundingBox">
      <stop offset="0" stop-color="#28da34"/>
      <stop offset="1" stop-color="#13e9e7"/>
    </linearGradient>
  </defs>
  <g id="Group_3446" data-name="Group 3446" transform="translate(-810 -429)">
    <g transform="matrix(1, 0, 0, 1, 810, 429)" filter="url(#Rectangle_619)">
      <rect id="Rectangle_619-2" data-name="Rectangle 619" width="141" height="47.5" rx="23.75" transform="translate(18 15)" fill="#fff"/>
    </g>
    <text id="Guides" transform="translate(847 475)" fill="#d2c6eb" font-size="18" font-family="Nunito-ExtraBold, Nunito" font-weight="800"><tspan x="0" y="0">Guides</tspan></text>
    <g id="Group_3439" data-name="Group 3439" transform="translate(-30)">
      <circle id="Ellipse_1991" data-name="Ellipse 1991" cx="24" cy="24" r="24" transform="translate(951 444)" fill="url(#linear-gradient)"/>
      <g id="Group_3438" data-name="Group 3438" transform="translate(995.284 381.166)">
        <path id="Path_2953" data-name="Path 2953" d="M-33.685,88.743l-.411,3.908a1.238,1.238,0,0,0,1.1,1.361l.788.082Zm2.616-12.875a1.245,1.245,0,0,0-1.36,1.1l-.236,2.218,9.519-2.512ZM-17.16,95.633l8.52.869a1.24,1.24,0,0,0,1.363-1.1l.257-2.453ZM-6.715,78.356l-.716-.07L-6,83.474l.4-3.756A1.232,1.232,0,0,0-6.715,78.356Z" transform="translate(0.055 0.178)" fill="#fff" fill-rule="evenodd"/>
        <path id="Path_2954" data-name="Path 2954" d="M-5.589,90.03l-3.9-14.155a1.426,1.426,0,0,0-1.725-1l-22.159,5.857a1.4,1.4,0,0,0-1,1.737l3.9,14.166a1.413,1.413,0,0,0,1.538,1.021,4.837,4.837,0,0,0,3.509,1.5,4.912,4.912,0,0,0,2.371-.61l3.509,2.969a1.522,1.522,0,0,0,.951.34,1.472,1.472,0,0,0,1.115-.516,1.457,1.457,0,0,0-.176-2.066l-3.392-2.864a4.435,4.435,0,0,0,.352-.927l14.108-3.721A1.4,1.4,0,0,0-5.589,90.03Zm-6.678-12.019A2.437,2.437,0,0,1-10,79.537l-3.1,3.087Zm-7.242,9.507a.584.584,0,0,1-.423.716l-4.695,1.232a4.485,4.485,0,0,0-.8-.07,4.812,4.812,0,0,0-3.052,1.08l-1.068.282a.807.807,0,0,1-.153.023.586.586,0,0,1-.563-.446.592.592,0,0,1,.411-.716l9.624-2.523A.59.59,0,0,1-19.509,87.518Zm-12.406-2.84a.586.586,0,0,1,.411-.716l9.624-2.523a.584.584,0,0,1,.716.423.59.59,0,0,1-.423.716L-31.2,85.1a.669.669,0,0,1-.153.012A.575.575,0,0,1-31.915,84.678Zm.516,1.854a.586.586,0,0,1,.411-.716l9.624-2.523a.586.586,0,0,1,.716.411.584.584,0,0,1-.423.716l-9.613,2.523a.687.687,0,0,1-.153.023A.588.588,0,0,1-31.4,86.532Zm.516,1.843a.584.584,0,0,1,.423-.716l9.613-2.523a.584.584,0,0,1,.716.423.59.59,0,0,1-.423.716L-30.166,88.8a.669.669,0,0,1-.153.012A.575.575,0,0,1-30.882,88.375Zm8,7.7a2.747,2.747,0,0,1-.34.411,3.165,3.165,0,0,1-1.338.8,3.449,3.449,0,0,1-.869.117,3.128,3.128,0,0,1-3.122-3.122,3.121,3.121,0,0,1,3.122-3.122A3.121,3.121,0,0,1-22.3,94.279,3.062,3.062,0,0,1-22.878,96.074Zm-.411-6.185,3.58-.939a.59.59,0,0,1,.716.423.59.59,0,0,1-.423.716l-2.617.692A4.527,4.527,0,0,0-23.289,89.889Zm4.39,2.042-2,.528a4.539,4.539,0,0,0-.6-1.068l2.3-.6a.584.584,0,0,1,.716.423A.584.584,0,0,1-18.9,91.931Zm6.491-4.46a4.285,4.285,0,0,1-5.364-2.782,4.266,4.266,0,0,1,2.782-5.364,3.739,3.739,0,0,1,1.326-.2l-.188,5.211L-10.167,81a4.157,4.157,0,0,1,.54,1.1A4.29,4.29,0,0,1-12.408,87.471Z" transform="translate(0 0)" fill="#fff"/>
      </g>
    </g>
  </g>
</svg>
