<svg xmlns="http://www.w3.org/2000/svg" width="31.758" height="29.717" viewBox="0 0 31.758 29.717">
  <g id="Group_3438" data-name="Group 3438" transform="translate(0)">
    <path id="Path_2953" data-name="Path 2953" d="M-33.644,90.025l-.452,4.3a1.361,1.361,0,0,0,1.212,1.5l.866.09Zm2.877-14.157a1.369,1.369,0,0,0-1.5,1.213l-.259,2.439,10.466-2.762ZM-15.473,97.6l9.368.955a1.364,1.364,0,0,0,1.5-1.213l.283-2.7Zm11.484-19-.787-.077,1.574,5.7.439-4.13A1.355,1.355,0,0,0-3.989,78.6Z" transform="translate(34.513 -74.535)" fill="#fff" fill-rule="evenodd"/>
    <path id="Path_2954" data-name="Path 2954" d="M-2.72,91.542-7,75.979a1.567,1.567,0,0,0-1.9-1.1l-24.365,6.44a1.545,1.545,0,0,0-1.1,1.91l4.284,15.576a1.554,1.554,0,0,0,1.691,1.123,5.318,5.318,0,0,0,3.859,1.652,5.4,5.4,0,0,0,2.607-.671l3.859,3.265a1.674,1.674,0,0,0,1.045.374,1.618,1.618,0,0,0,1.226-.568,1.6,1.6,0,0,0-.194-2.271l-3.73-3.149a4.876,4.876,0,0,0,.387-1.019l15.512-4.091A1.544,1.544,0,0,0-2.72,91.542Zm-7.343-13.215a2.679,2.679,0,0,1,2.491,1.678L-10.979,83.4Zm-7.962,10.453a.643.643,0,0,1-.465.787l-5.162,1.355a4.933,4.933,0,0,0-.878-.077,5.291,5.291,0,0,0-3.355,1.187l-1.174.31a.888.888,0,0,1-.168.026.644.644,0,0,1-.619-.49.651.651,0,0,1,.452-.787l10.582-2.775A.648.648,0,0,1-18.025,88.781Zm-13.641-3.123a.645.645,0,0,1,.452-.787L-20.632,82.1a.643.643,0,0,1,.787.465.648.648,0,0,1-.465.787l-10.569,2.775a.735.735,0,0,1-.168.013A.632.632,0,0,1-31.666,85.658ZM-31.1,87.7a.645.645,0,0,1,.452-.787l10.582-2.775a.645.645,0,0,1,.787.452.643.643,0,0,1-.465.787l-10.569,2.775a.755.755,0,0,1-.168.026A.647.647,0,0,1-31.1,87.7Zm.568,2.026a.643.643,0,0,1,.465-.787L-19.5,86.161a.643.643,0,0,1,.787.465.648.648,0,0,1-.465.787l-10.569,2.775a.736.736,0,0,1-.168.013A.632.632,0,0,1-30.53,89.723Zm8.8,8.466a3.02,3.02,0,0,1-.374.452,3.48,3.48,0,0,1-1.471.878,3.792,3.792,0,0,1-.955.129,3.44,3.44,0,0,1-3.433-3.433,3.431,3.431,0,0,1,3.433-3.433A3.431,3.431,0,0,1-21.1,96.214,3.366,3.366,0,0,1-21.729,98.188Zm-.452-6.8,3.936-1.032a.648.648,0,0,1,.787.465.648.648,0,0,1-.465.787l-2.878.761A4.978,4.978,0,0,0-22.181,91.387Zm4.826,2.245-2.194.581a4.991,4.991,0,0,0-.658-1.174l2.529-.658a.643.643,0,0,1,.787.465A.643.643,0,0,1-17.354,93.633Zm7.136-4.9a4.712,4.712,0,0,1-5.9-3.058,4.691,4.691,0,0,1,3.058-5.9,4.111,4.111,0,0,1,1.458-.219l-.206,5.73,4.052-3.665a4.571,4.571,0,0,1,.594,1.213A4.717,4.717,0,0,1-10.218,88.729Z" transform="translate(34.421 -74.834)" fill="#fff"/>
  </g>
</svg>
