<svg xmlns="http://www.w3.org/2000/svg" xmlns:xlink="http://www.w3.org/1999/xlink" width="661" height="589.733" viewBox="0 0 661 589.733">
  <defs>
    <linearGradient id="linear-gradient" x1="0.988" x2="0.112" y2="1" gradientUnits="objectBoundingBox">
      <stop offset="0" stop-color="#e38dee"/>
      <stop offset="1" stop-color="#7a5bff"/>
    </linearGradient>
    <filter id="Rectangle_790" x="-18" y="-15" width="697" height="625.733" filterUnits="userSpaceOnUse">
      <feOffset dy="3" input="SourceAlpha"/>
      <feGaussianBlur stdDeviation="6" result="blur"/>
      <feFlood flood-color="#7b5bfd" flood-opacity="0.22"/>
      <feComposite operator="in" in2="blur"/>
      <feComposite in="SourceGraphic"/>
    </filter>
    <clipPath id="clip-path">
      <g transform="matrix(1, 0, 0, 1, 0, 0)" filter="url(#Rectangle_790)">
        <rect id="Rectangle_790-2" data-name="Rectangle 790" width="661" height="589.733" rx="32" transform="translate(142 1575)" fill="url(#linear-gradient)"/>
      </g>
    </clipPath>
    <linearGradient id="linear-gradient-2" y1="0.5" x2="1" y2="0.5" gradientUnits="objectBoundingBox">
      <stop offset="0" stop-color="#8974e6"/>
      <stop offset="1" stop-color="#f30070"/>
    </linearGradient>
    <linearGradient id="linear-gradient-3" x1="-0.037" y1="0.5" x2="1.037" y2="0.5" xlink:href="#linear-gradient-2"/>
    <linearGradient id="linear-gradient-4" x1="-0.007" y1="0.5" x2="1.007" y2="0.5" xlink:href="#linear-gradient-2"/>
    <linearGradient id="linear-gradient-5" x1="-0.131" y1="0.5" x2="1.131" y2="0.5" xlink:href="#linear-gradient-2"/>
  </defs>
  <g id="Mask_Group_46" data-name="Mask Group 46" transform="translate(-142 -1575)" clip-path="url(#clip-path)">
    <g id="Group_2940" data-name="Group 2940" transform="matrix(0.946, 0.326, -0.326, 0.946, 159.67, 1579.083)">
      <path id="Path_1926" data-name="Path 1926" d="M582.339,104.066c41.239,65.605-91.437,88.042-128.427,197.779C418.74,406.186,565.607,502.751,479.427,632.9c-23.785,35.919-109.271-58.8-186.215-62.372S147.864,654.533,89.638,590.1c-91-100.7,132.6-197.075,105.922-239.522-32.588-51.843-131.595-2.645-169.638-96.763C-36.6,99.135,71.156-9.322,128.862,7.021c76.505,21.666,88.8,131.785,186.27,149.333C404.348,172.415,543.892,42.9,582.339,104.066Z" transform="translate(0)" opacity="0.09" fill="url(#linear-gradient-2)"/>
      <path id="Path_1927" data-name="Path 1927" d="M29.364,0C45.315-.212,58.033,17.9,57.769,40.454S44.361,81.467,28.41,81.681-.259,63.785,0,41.229,13.412.216,29.364,0Z" transform="translate(267.557 82.743) rotate(-33.099)" opacity="0.09" fill="url(#linear-gradient-3)"/>
      <path id="Path_1928" data-name="Path 1928" d="M8.866.006c5.165.212,9.577,6.518,9.854,14.083S15.033,27.615,9.867,27.4.29,20.885.014,13.319,3.7-.207,8.866.006Z" transform="translate(363.275 78.843) rotate(-11.365)" opacity="0.09" fill="url(#linear-gradient-4)"/>
      <path id="Path_1929" data-name="Path 1929" d="M6.724.012C10.13-.22,12.653,3,12.358,7.2s-3.294,7.8-6.7,8.027S-.271,12.24.023,8.038,3.317.243,6.724.012Z" transform="translate(346.138 46.209) rotate(-79.086)" opacity="0.09" fill="url(#linear-gradient-5)"/>
    </g>
  </g>
</svg>
