<svg xmlns="http://www.w3.org/2000/svg" xmlns:xlink="http://www.w3.org/1999/xlink" width="758.347" height="790.858" viewBox="0 0 758.347 790.858">
  <defs>
    <linearGradient id="linear-gradient" y1="0.5" x2="1" y2="0.5" gradientUnits="objectBoundingBox">
      <stop offset="0" stop-color="#8974e6"/>
      <stop offset="1" stop-color="#f30070"/>
    </linearGradient>
    <linearGradient id="linear-gradient-2" x1="-0.037" y1="0.5" x2="1.037" y2="0.5" xlink:href="#linear-gradient"/>
    <linearGradient id="linear-gradient-3" x1="-0.007" y1="0.5" x2="1.007" y2="0.5" xlink:href="#linear-gradient"/>
    <linearGradient id="linear-gradient-4" x1="-0.131" y1="0.5" x2="1.131" y2="0.5" xlink:href="#linear-gradient"/>
  </defs>
  <g id="Group_7216" data-name="Group 7216" transform="matrix(0.946, 0.326, -0.326, 0.946, 202.059, -7.384)">
    <path id="Path_1926" data-name="Path 1926" d="M582.339,104.066c41.239,65.605-91.437,88.042-128.427,197.779C418.74,406.186,565.607,502.751,479.427,632.9c-23.785,35.919-109.271-58.8-186.215-62.372S147.864,654.533,89.638,590.1c-91-100.7,132.6-197.075,105.922-239.522-32.588-51.843-131.595-2.645-169.638-96.763C-36.6,99.135,71.156-9.322,128.862,7.021c76.505,21.666,88.8,131.785,186.27,149.333C404.348,172.415,543.892,42.9,582.339,104.066Z" transform="translate(0)" opacity="0.09" fill="url(#linear-gradient)"/>
    <path id="Path_1927" data-name="Path 1927" d="M29.364,0C45.315-.212,58.033,17.9,57.769,40.454S44.361,81.467,28.41,81.681-.259,63.785,0,41.229,13.412.216,29.364,0Z" transform="translate(267.557 82.743) rotate(-33.099)" opacity="0.09" fill="url(#linear-gradient-2)"/>
    <path id="Path_1928" data-name="Path 1928" d="M8.866.006c5.165.212,9.577,6.518,9.854,14.083S15.033,27.615,9.867,27.4.29,20.885.014,13.319,3.7-.207,8.866.006Z" transform="translate(363.275 78.843) rotate(-11.365)" opacity="0.09" fill="url(#linear-gradient-3)"/>
    <path id="Path_1929" data-name="Path 1929" d="M6.724.012C10.13-.22,12.653,3,12.358,7.2s-3.294,7.8-6.7,8.027S-.271,12.24.023,8.038,3.317.243,6.724.012Z" transform="translate(346.138 46.209) rotate(-79.086)" opacity="0.09" fill="url(#linear-gradient-4)"/>
  </g>
</svg>
