<svg xmlns="http://www.w3.org/2000/svg" xmlns:xlink="http://www.w3.org/1999/xlink" width="34.867" height="21.193" viewBox="0 0 34.867 21.193">
  <defs>
    <linearGradient id="linear-gradient" y1="0.5" x2="1" y2="0.5" gradientUnits="objectBoundingBox">
      <stop offset="0" stop-color="#1fa2ff"/>
      <stop offset="1" stop-color="#abfece"/>
    </linearGradient>
  </defs>
  <path id="Path_2974" data-name="Path 2974" d="M1028.808,684.139l8.163-11.108a2.455,2.455,0,0,0-1.327-.01l-16.093,4.349a2.965,2.965,0,0,0-1.229.7Zm-11.27-4.978a3.2,3.2,0,0,0-.215,1.612l1.528,11.293a2.621,2.621,0,0,0,.528,1.265l5.694-9.811Zm13.683,3.485-1.889,2.573a.778.778,0,0,1-.418.293.607.607,0,0,1-.465-.054l-2.428-1.406-5.768,9.935a2.44,2.44,0,0,0,1.473.052l16.094-4.349a3.005,3.005,0,0,0,1.355-.816Zm9.032,3.767a3.178,3.178,0,0,1-.161,1.451l-7.855-6.148,5.867-7.983a2.62,2.62,0,0,1,.621,1.387Zm-29.837-3.4,3.376-.912a.476.476,0,0,1,.584.339.481.481,0,0,1-.337.589l-3.375.912a.48.48,0,0,1-.247-.928Zm-4.534,5.366,5.831-1.576a.635.635,0,0,1,.778.452.642.642,0,0,1-.449.785l-5.831,1.575a.64.64,0,0,1-.329-1.237Zm6.866,3.289,3.682-1a.48.48,0,0,1,.247.927l-3.682,1a.48.48,0,0,1-.247-.927Z" transform="translate(-1005.411 -672.934)" fill="url(#linear-gradient)"/>
</svg>
