<svg xmlns="http://www.w3.org/2000/svg" width="23.975" height="29.103" viewBox="0 0 23.975 29.103">
  <g id="Group_3493" data-name="Group 3493" transform="translate(0.579 0.5)">
    <path id="Union_30" data-name="Union 30" d="M5972.2,2706.324a.786.786,0,0,1-.71-.773c-.012-.6.71-.773.71-.773,3.746.423,4.367.29,5.675-1.934,1.963-4.23,5.677-3.481,5.677-3.481-4.352.254-4.612,3.095-4.612,3.095a5.421,5.421,0,0,1-5.612,3.952A6.746,6.746,0,0,1,5972.2,2706.324Zm1.083-15.76a2.291,2.291,0,0,0,1.457-2.191,2.142,2.142,0,1,0-4.269,0,2.289,2.289,0,0,0,1.4,2.168v12.853l-7.828-13.094,4.614-8.124h7.8l4.6,8.124-7.78,13.141Zm-3.96-9.533a1.013,1.013,0,0,1-1.014-1.013v-.7a1.014,1.014,0,0,1,1.014-1.015h6.46a1.014,1.014,0,0,1,1.014,1.015v.7a1.013,1.013,0,0,1-1.014,1.013Z" transform="translate(-5964.041 -2678.306)" fill="#fff" stroke="rgba(0,0,0,0)" stroke-miterlimit="10" stroke-width="1"/>
  </g>
</svg>
