<svg xmlns="http://www.w3.org/2000/svg" width="35.565" height="16.949" viewBox="0 0 35.565 16.949">
  <g id="Group_3494" data-name="Group 3494" transform="translate(0 0)">
    <path id="Path_2972" data-name="Path 2972" d="M98.585,270.18H76.01a2.352,2.352,0,0,0-2.35,2.35v12.249a2.352,2.352,0,0,0,2.35,2.35H98.585a2.352,2.352,0,0,0,2.35-2.35V272.53A2.352,2.352,0,0,0,98.585,270.18Zm-7.307,8.973-5.84,4a.6.6,0,0,1-.94-.5v-8a.6.6,0,0,1,.94-.5l5.84,4A.6.6,0,0,1,91.279,279.153Z" transform="translate(-73.66 -270.18)" fill="#fff"/>
    <path id="Path_2973" data-name="Path 2973" d="M93.89,274.929l4.411-3.386a1.622,1.622,0,0,1,2.609,1.286v6.9A1.622,1.622,0,0,1,98.278,281l-4.411-3.514A1.622,1.622,0,0,1,93.89,274.929Z" transform="translate(-65.346 -269.745)" fill="#fff"/>
  </g>
</svg>
