<svg xmlns="http://www.w3.org/2000/svg" width="10.593" height="6.936" viewBox="0 0 10.593 6.936">
  <g id="Group_2394" data-name="Group 2394" transform="translate(910.844 -460.77) rotate(90)">
    <path id="Path_772" data-name="Path 772" d="M461.17,908.512l2.012-2.012a1.365,1.365,0,0,0,0-1.931l-1.985-1.986a1.366,1.366,0,0,1,0-1.932h0a1.366,1.366,0,0,1,1.932,0l4.362,4.363a.735.735,0,0,1,0,1.04l-4.389,4.39a1.366,1.366,0,0,1-1.932,0h0A1.366,1.366,0,0,1,461.17,908.512Z" transform="translate(0 0)" fill="#59486e"/>
  </g>
</svg>
