<svg xmlns="http://www.w3.org/2000/svg" width="22.51" height="22.51" viewBox="0 0 22.51 22.51">
  <g id="Group_2508" data-name="Group 2508" transform="translate(2737.832 -3524.562)">
    <circle id="Ellipse_80" data-name="Ellipse 80" cx="9.932" cy="9.932" r="9.932" transform="translate(-2736.792 3525.885)" fill="#fff"/>
    <g id="Group_2507" data-name="Group 2507" transform="translate(-2737.832 3524.562)">
      <path id="Path_1004" data-name="Path 1004" d="M-2726.58,3524.562a11.251,11.251,0,0,0-11.252,11.252,11.253,11.253,0,0,0,11.252,11.258,11.257,11.257,0,0,0,11.258-11.258A11.256,11.256,0,0,0-2726.58,3524.562Zm3.105,6.888h-1.638a.616.616,0,0,0-.642.7v1.522h2.271l-.263,2.584h-2.008v7.354h-3.045v-7.354h-1.446v-2.589h1.446V3532a2.853,2.853,0,0,1,3.07-3.07l2.256.01Z" transform="translate(2737.832 -3524.562)" fill="#3b5998"/>
    </g>
  </g>
</svg>
