<svg xmlns="http://www.w3.org/2000/svg" xmlns:xlink="http://www.w3.org/1999/xlink" width="22.762" height="22.762" viewBox="0 0 22.762 22.762">
  <defs>
    <linearGradient id="linear-gradient" x1="0.25" y1="0.933" x2="0.75" y2="0.067" gradientUnits="objectBoundingBox">
      <stop offset="0" stop-color="#f2bd5f"/>
      <stop offset="0.509" stop-color="#d53477"/>
      <stop offset="1" stop-color="#6f5fa8"/>
    </linearGradient>
  </defs>
  <g id="Group_2512" data-name="Group 2512" transform="translate(2486.342 -3524.092)">
    <circle id="Ellipse_82" data-name="Ellipse 82" cx="10.452" cy="10.452" r="10.452" transform="translate(-2485.413 3525.019)" fill="#fff"/>
    <path id="Path_1006" data-name="Path 1006" d="M-2474.964,3524.092a11.377,11.377,0,0,0-11.378,11.378,11.378,11.378,0,0,0,11.378,11.384,11.379,11.379,0,0,0,11.384-11.384A11.378,11.378,0,0,0-2474.964,3524.092Zm7.366,14.167a4.572,4.572,0,0,1-4.577,4.571h-5.572a4.572,4.572,0,0,1-4.577-4.571v-5.572a4.577,4.577,0,0,1,4.577-4.577h5.572a4.576,4.576,0,0,1,4.577,4.577Zm-4.577-9.084h-5.572a3.516,3.516,0,0,0-3.513,3.512v5.572a3.512,3.512,0,0,0,3.513,3.507h5.572a3.511,3.511,0,0,0,3.512-3.507v-5.572A3.516,3.516,0,0,0-2472.175,3529.175Zm-2.789,9.654a3.354,3.354,0,0,1-3.353-3.358,3.352,3.352,0,0,1,3.353-3.353,3.353,3.353,0,0,1,3.358,3.353A3.355,3.355,0,0,1-2474.964,3538.829Zm3.768-6.248a.839.839,0,0,1-.841-.841.843.843,0,0,1,.841-.841.839.839,0,0,1,.841.841A.836.836,0,0,1-2471.2,3532.581Zm-1.474,2.89a2.294,2.294,0,0,1-2.294,2.294,2.293,2.293,0,0,1-2.288-2.294,2.292,2.292,0,0,1,2.288-2.288A2.293,2.293,0,0,1-2472.67,3535.47Z" transform="translate(0 0)" fill="url(#linear-gradient)"/>
  </g>
</svg>
