<svg xmlns="http://www.w3.org/2000/svg" width="22.762" height="22.767" viewBox="0 0 22.762 22.767">
  <g id="Group_2511" data-name="Group 2511" transform="translate(2688.632 -3524.312)">
    <circle id="Ellipse_81" data-name="Ellipse 81" cx="9.934" cy="9.934" r="9.934" transform="translate(-2687.185 3526.152)" fill="#fff"/>
    <g id="Group_2510" data-name="Group 2510" transform="translate(-2688.632 3524.312)">
      <path id="Path_1005" data-name="Path 1005" d="M-2677.251,3524.312a11.382,11.382,0,0,0-11.381,11.381,11.383,11.383,0,0,0,11.381,11.386,11.386,11.386,0,0,0,11.381-11.386A11.385,11.385,0,0,0-2677.251,3524.312Zm-3.01,16.99h-2.721v-8.179h2.721Zm-1.361-9.3h-.015a1.41,1.41,0,0,1-1.507-1.416,1.423,1.423,0,0,1,1.543-1.411,1.409,1.409,0,0,1,1.517,1.411A1.416,1.416,0,0,1-2681.622,3532.005Zm11.168,9.3h-2.721v-4.375c0-1.1-.389-1.851-1.376-1.851a1.487,1.487,0,0,0-1.4,1,1.858,1.858,0,0,0-.091.663v4.567h-2.721s.036-7.415,0-8.179h2.721v1.158a2.7,2.7,0,0,1,2.453-1.351c1.791,0,3.131,1.168,3.131,3.682Zm-5.584-7v-.025c-.005.01-.01.015-.015.025Z" transform="translate(2688.632 -3524.312)" fill="#007ab9"/>
    </g>
  </g>
</svg>
