<svg xmlns="http://www.w3.org/2000/svg" width="9.169" height="14.004" viewBox="0 0 9.169 14.004">
  <g id="Group_6935" data-name="Group 6935" transform="translate(-460.77 -900.251)">
    <path id="Path_772" data-name="Path 772" d="M461.3,911.172l2.659-2.661a1.8,1.8,0,0,0,0-2.553l-2.624-2.625a1.806,1.806,0,0,1,0-2.554h0a1.805,1.805,0,0,1,2.553,0l5.767,5.768a.972.972,0,0,1,0,1.375l-5.8,5.8a1.806,1.806,0,0,1-2.553,0h0A1.806,1.806,0,0,1,461.3,911.172Z" transform="translate(0 0)" fill="#7e5dff"/>
  </g>
</svg>
