<svg xmlns="http://www.w3.org/2000/svg" width="22.761" height="22.761" viewBox="0 0 22.761 22.761">
  <g id="Group_2513" data-name="Group 2513" transform="translate(2638.948 -3524.562)">
    <circle id="Ellipse_83" data-name="Ellipse 83" cx="10.482" cy="10.482" r="10.482" transform="translate(-2638.228 3525.745)" fill="#fff"/>
    <path id="Path_1007" data-name="Path 1007" d="M-2627.567,3524.562a11.381,11.381,0,0,0-11.381,11.38,11.382,11.382,0,0,0,11.381,11.38,11.381,11.381,0,0,0,11.381-11.38A11.381,11.381,0,0,0-2627.567,3524.562Zm5.613,9.587c0,.116.008.233.008.351a7.686,7.686,0,0,1-7.739,7.739,7.7,7.7,0,0,1-4.17-1.221,5.7,5.7,0,0,0,.649.039,5.468,5.468,0,0,0,3.378-1.165,2.723,2.723,0,0,1-2.54-1.891,2.645,2.645,0,0,0,.511.049,2.681,2.681,0,0,0,.716-.1,2.72,2.72,0,0,1-2.181-2.667v-.034a2.68,2.68,0,0,0,1.231.34,2.715,2.715,0,0,1-1.209-2.264,2.714,2.714,0,0,1,.367-1.367,7.725,7.725,0,0,0,5.607,2.842,2.692,2.692,0,0,1-.071-.619,2.72,2.72,0,0,1,2.72-2.72,2.722,2.722,0,0,1,1.986.858,5.461,5.461,0,0,0,1.728-.659,2.738,2.738,0,0,1-1.2,1.505,5.5,5.5,0,0,0,1.563-.428A5.518,5.518,0,0,1-2621.954,3534.149Z" fill="#55acee"/>
  </g>
</svg>
